<?xml version="1.0" standalone="no"?>
<!DOCTYPE svg PUBLIC "-//W3C//DTD SVG 20010904//EN"
 "http://www.w3.org/TR/2001/REC-SVG-20010904/DTD/svg10.dtd">
<svg version="1.0" xmlns="http://www.w3.org/2000/svg"
 width="500.000000pt" height="500.000000pt" viewBox="0 0 500.000000 500.000000"
 preserveAspectRatio="xMidYMid meet">
<metadata>
Created by potrace 1.16, written by Peter Selinger 2001-2019
</metadata>
<g transform="translate(0.000000,500.000000) scale(0.100000,-0.100000)"
fill="#000000" stroke="none">
<path d="M3060 4066 c-292 -62 -531 -245 -665 -511 -66 -129 -85 -212 -92
-385 -4 -123 -2 -160 16 -245 35 -167 145 -366 260 -474 226 -210 524 -304
810 -257 204 34 355 106 506 240 l50 44 -46 -5 c-60 -7 -84 7 -101 59 l-15 43
-68 0 -68 0 -14 -40 c-7 -22 -21 -46 -30 -52 -26 -20 -87 -16 -108 6 -16 19
-16 23 4 83 21 60 21 63 4 73 -47 26 -152 148 -201 231 l-54 91 -96 -5 c-116
-5 -152 -20 -196 -78 -30 -39 -33 -49 -29 -91 2 -27 11 -69 19 -95 8 -26 14
-54 14 -62 0 -9 5 -16 10 -16 6 0 22 -11 35 -25 34 -33 32 -70 -2 -92 -16 -10
-33 -25 -40 -33 -8 -10 -31 -15 -76 -16 -55 -1 -70 -5 -97 -27 -29 -25 -37
-26 -88 -20 -59 6 -68 12 -79 52 -4 19 0 30 19 46 l25 22 -25 49 c-30 60 -31
61 -40 47 -21 -33 -54 38 -42 88 18 77 45 99 128 105 83 6 106 21 110 69 2 22
-4 67 -13 101 -15 56 -18 61 -40 56 -19 -3 -27 2 -36 22 -9 18 -9 29 -1 39 6
7 9 23 5 35 -6 25 12 52 34 52 8 0 21 7 29 15 19 18 29 19 46 3 7 -7 19 -13
26 -14 29 -2 33 -5 42 -29 5 -14 17 -25 28 -25 26 0 62 -42 62 -72 0 -31 -45
-88 -69 -88 -15 0 -16 -5 -7 -45 l10 -45 36 37 c50 52 101 71 198 75 68 2 82
6 78 18 -5 17 -80 206 -103 260 -14 33 -72 103 -121 144 l-22 19 6 -31 c9 -47
-8 -62 -71 -62 -58 0 -66 6 -84 63 l-13 37 -67 0 -67 0 -21 -50 -21 -50 -50 0
c-56 0 -77 17 -69 52 19 86 137 419 156 441 17 21 133 24 148 5 12 -15 96
-244 112 -305 10 -35 23 -50 83 -94 88 -66 118 -113 188 -292 30 -76 57 -140
60 -142 13 -8 158 32 193 53 37 24 107 96 107 111 0 6 -4 13 -10 16 -20 12
-10 64 17 89 l27 25 2 179 3 179 -23 -4 c-17 -4 -31 4 -50 24 -38 40 -33 90
11 118 17 11 33 29 35 40 2 11 13 24 24 30 12 6 29 17 37 24 12 9 21 10 36 2
11 -6 29 -11 40 -11 22 0 46 -34 36 -50 -3 -6 1 -20 9 -32 18 -25 5 -58 -23
-58 -23 0 -31 -26 -31 -112 0 -91 8 -98 119 -98 78 0 90 -2 108 -22 35 -39 55
-87 48 -119 -8 -34 -24 -47 -35 -29 -5 8 -14 -7 -26 -45 l-18 -57 27 -20 c42
-31 30 -98 -18 -98 -13 0 -35 -5 -48 -11 -19 -9 -32 -8 -58 4 -49 22 -96 30
-104 18 -9 -15 -51 -14 -76 2 -17 10 -22 9 -31 -7 -43 -76 -145 -145 -250
-168 -29 -6 -54 -13 -56 -14 -6 -4 64 -121 107 -180 38 -52 116 -124 133 -124
3 0 8 10 11 23 13 57 90 263 104 279 12 13 31 18 73 18 71 0 82 -11 114 -111
14 -41 45 -132 69 -202 25 -70 47 -140 49 -155 3 -26 5 -24 51 33 67 85 133
223 163 340 30 116 37 307 15 410 -78 374 -331 648 -686 745 -102 28 -336 36
-435 16z"/>
<path d="M2691 3806 c-23 -60 -134 -383 -138 -403 -5 -21 -2 -23 36 -23 40 0
41 1 52 45 6 24 17 49 24 55 8 6 46 10 91 8 l79 -3 19 -52 19 -53 43 0 c43 0
44 1 38 28 -4 15 -24 72 -44 127 -21 55 -43 118 -50 140 -6 22 -21 66 -32 98
l-21 57 -54 0 c-47 0 -55 -3 -62 -24z"/>
<path d="M3635 3269 c-4 -6 -13 -8 -21 -5 -14 5 -44 -18 -44 -34 0 -5 20 -19
45 -31 40 -20 50 -21 78 -11 45 16 56 15 100 -8 40 -22 72 -26 82 -10 3 6 17
10 29 10 15 0 26 7 29 20 7 27 -71 66 -111 54 -37 -11 -101 -5 -134 12 -32 17
-45 18 -53 3z"/>
<path d="M3673 2952 c-12 -8 -153 -403 -153 -429 0 -10 10 -13 37 -11 34 3 39
7 54 48 l17 45 89 3 89 3 15 -48 c15 -48 15 -48 62 -51 l46 -3 -18 53 c-11 29
-45 127 -76 218 -32 91 -63 168 -69 172 -14 10 -78 10 -93 0z m79 -173 c15
-46 28 -90 28 -96 0 -14 -130 -19 -130 -5 -2 21 56 191 64 189 5 -2 22 -41 38
-88z"/>
<path d="M2886 2572 c-25 -29 -105 -53 -129 -40 -15 8 -25 5 -46 -11 -14 -12
-36 -25 -48 -31 -15 -6 -20 -15 -16 -28 4 -16 17 -21 61 -27 50 -6 58 -5 73
14 24 29 67 43 111 36 32 -6 42 -2 76 26 45 38 47 69 3 69 -14 0 -35 3 -46 6
-13 3 -27 -2 -39 -14z"/>
<path d="M2368 2198 c-12 -8 -22 -40 -30 -91 l-12 -78 37 -30 c35 -29 37 -34
37 -90 0 -62 -26 -147 -56 -180 -14 -16 -16 -35 -12 -130 4 -108 6 -113 33
-137 24 -20 36 -23 72 -19 23 2 54 12 67 20 24 16 27 26 42 145 5 41 10 52 24
52 48 0 50 -6 50 -126 0 -131 0 -130 97 -140 41 -4 63 -2 75 8 10 7 28 55 42
107 24 90 25 101 19 305 -7 229 -3 251 43 262 40 10 23 27 -62 60 -43 17 -96
41 -116 54 -29 17 -39 19 -42 8 -5 -13 -34 -266 -39 -328 -2 -28 -7 -36 -26
-38 -13 -2 -27 0 -32 5 -4 4 -3 79 3 166 11 155 10 159 -10 180 -17 17 -37 21
-104 25 -59 3 -88 0 -100 -10z"/>
<path d="M1064 2050 c-25 -10 -75 -123 -105 -238 -36 -138 -24 -389 25 -507
15 -34 16 -35 74 -35 71 0 156 24 184 52 18 18 20 28 15 87 -4 36 -9 75 -12
87 -5 15 0 23 20 32 39 18 43 16 69 -35 13 -27 36 -59 50 -72 21 -20 31 -23
68 -17 77 12 119 28 114 43 -8 20 -56 264 -56 283 0 26 -153 182 -243 248
-112 82 -148 94 -203 72z"/>
</g>
</svg>
