<svg aria-hidden="true" style="position: absolute; width: 0; height: 0; overflow: hidden;" version="1.1" xmlns="http://www.w3.org/2000/svg" xmlns:xlink="http://www.w3.org/1999/xlink">
  <defs>
    <symbol id="icon-google" viewBox="0 0 31 32">
      <path d="M4.457 28.208l12.349-12.418-12.146-12.214c-0.485 0.311-0.823 0.847-0.823 1.498v21.788c0 0.555 0.246 1.027 0.619 1.347z"></path>
      <path d="M26.323 14.407c1.238 0.681 1.238 2.44 0 3.121l-4.994 2.748-4.524-4.487 4.293-4.258 5.225 2.875z"></path>
      <path d="M21.33 20.277l-4.524-4.487-12.349 12.418c0.543 0.465 1.355 0.607 2.070 0.214l14.803-8.146z"></path>
      <path d="M4.66 3.576l12.146 12.214 4.293-4.258-14.572-8.019c-0.63-0.347-1.336-0.277-1.866 0.063z"></path>
    </symbol>
    <symbol id="icon-arrow-right" viewBox="0 0 32 32">
      <path d="M16 28.334c3.271 0 6.408-1.299 8.721-3.612s3.612-5.45 3.612-8.721c0-3.271-1.299-6.408-3.612-8.721s-5.45-3.612-8.721-3.612c-3.271 0-6.408 1.299-8.721 3.612s-3.612 5.45-3.612 8.721c0 3.271 1.299 6.408 3.612 8.721s5.45 3.612 8.721 3.612zM30.334 16c0 7.916-6.417 14.333-14.333 14.333s-14.333-6.417-14.333-14.333c0-7.916 6.417-14.333 14.333-14.333s14.333 6.417 14.333 14.333zM16.627 20.707c-0.187-0.188-0.292-0.442-0.292-0.707s0.105-0.519 0.292-0.707l2.293-2.293h-8.253c-0.265 0-0.52-0.105-0.707-0.293s-0.293-0.442-0.293-0.707c0-0.265 0.105-0.52 0.293-0.707s0.442-0.293 0.707-0.293h8.253l-2.293-2.293c-0.098-0.092-0.177-0.202-0.232-0.325s-0.084-0.255-0.086-0.389c-0.002-0.134 0.022-0.268 0.073-0.392s0.125-0.238 0.22-0.333c0.095-0.095 0.208-0.17 0.333-0.22s0.258-0.075 0.392-0.073c0.134 0.002 0.267 0.032 0.389 0.086s0.233 0.133 0.325 0.232l4 4c0.187 0.188 0.292 0.442 0.292 0.707s-0.105 0.519-0.292 0.707l-4 4c-0.188 0.187-0.442 0.292-0.707 0.292s-0.519-0.105-0.707-0.292z"></path>
    </symbol>
    <symbol id="icon-arrow-left" viewBox="0 0 32 32">
      <path d="M16 3.667c-3.271 0-6.408 1.299-8.721 3.612s-3.612 5.45-3.612 8.721 1.299 6.408 3.612 8.721c2.313 2.313 5.45 3.612 8.721 3.612s6.408-1.299 8.721-3.612c2.313-2.313 3.612-5.45 3.612-8.721s-1.299-6.408-3.612-8.721c-2.313-2.313-5.45-3.612-8.721-3.612zM1.667 16c0-7.916 6.417-14.333 14.333-14.333s14.333 6.417 14.333 14.333c0 7.916-6.417 14.333-14.333 14.333s-14.333-6.417-14.333-14.333zM15.373 11.293c0.187 0.188 0.292 0.442 0.292 0.707s-0.105 0.519-0.292 0.707l-2.293 2.293h8.253c0.265 0 0.52 0.105 0.707 0.293s0.293 0.442 0.293 0.707c0 0.265-0.105 0.52-0.293 0.707s-0.442 0.293-0.707 0.293h-8.253l2.293 2.293c0.098 0.092 0.177 0.202 0.232 0.325s0.084 0.255 0.086 0.389c0.002 0.134-0.022 0.268-0.073 0.392s-0.125 0.238-0.22 0.333c-0.095 0.095-0.208 0.17-0.333 0.22s-0.258 0.075-0.392 0.073c-0.134-0.002-0.267-0.032-0.389-0.086s-0.233-0.133-0.325-0.232l-4-4c-0.187-0.188-0.292-0.442-0.292-0.707s0.105-0.519 0.292-0.707l4-4c0.188-0.187 0.442-0.292 0.707-0.292s0.519 0.105 0.707 0.292z"></path>
    </symbol>
    <symbol id="icon-map" viewBox="0 0 32 32">
      <path stroke-linejoin="miter" stroke-linecap="butt" stroke-miterlimit="4" stroke-width="2" d="M5.333 13.524c0-5.997 4.776-10.858 10.667-10.858s10.667 4.861 10.667 10.858c0 5.95-3.404 12.892-8.716 15.375-1.238 0.579-2.663 0.579-3.901 0-5.312-2.483-8.716-9.425-8.716-15.375z"></path>
      <path stroke-linejoin="miter" stroke-linecap="butt" stroke-miterlimit="4" stroke-width="2" d="M20 13.333c0 2.209-1.791 4-4 4s-4-1.791-4-4c0-2.209 1.791-4 4-4s4 1.791 4 4z"></path>
    </symbol>
    <symbol id="icon-mail" viewBox="0 0 32 32">
      <path stroke-linejoin="miter" stroke-linecap="butt" stroke-miterlimit="4" stroke-width="2" d="M2.667 16c0-5.028 0-7.542 1.562-9.105s4.076-1.562 9.105-1.562h5.333c5.028 0 7.543 0 9.105 1.562s1.562 4.076 1.562 9.105c0 5.028 0 7.543-1.562 9.105s-4.076 1.562-9.105 1.562h-5.333c-5.028 0-7.542 0-9.105-1.562s-1.562-4.076-1.562-9.105z"></path>
      <path stroke-linejoin="miter" stroke-linecap="round" stroke-miterlimit="4" stroke-width="2" d="M8 10.667l2.879 2.399c2.449 2.041 3.673 3.061 5.121 3.061s2.673-1.020 5.121-3.061l2.879-2.399"></path>
    </symbol>
    <symbol id="icon-faq" viewBox="0 0 32 32">
      <path stroke-linejoin="miter" stroke-linecap="butt" stroke-miterlimit="4" stroke-width="2.1333" d="M29.856 3.733h-27.712l13.856 24.002 13.856-24.002z"></path>
    </symbol>
    <symbol id="icon-menu-close" viewBox="0 0 32 32">
      <path d="M16 17.867l-6.533 6.533c-0.244 0.244-0.556 0.367-0.933 0.367s-0.689-0.122-0.933-0.367c-0.244-0.244-0.367-0.556-0.367-0.933s0.122-0.689 0.367-0.933l6.533-6.533-6.533-6.533c-0.244-0.244-0.367-0.556-0.367-0.933s0.122-0.689 0.367-0.933c0.244-0.244 0.556-0.367 0.933-0.367s0.689 0.122 0.933 0.367l6.533 6.533 6.533-6.533c0.244-0.244 0.556-0.367 0.933-0.367s0.689 0.122 0.933 0.367c0.244 0.244 0.367 0.556 0.367 0.933s-0.122 0.689-0.367 0.933l-6.533 6.533 6.533 6.533c0.244 0.244 0.367 0.556 0.367 0.933s-0.122 0.689-0.367 0.933c-0.244 0.244-0.556 0.367-0.933 0.367s-0.689-0.122-0.933-0.367l-6.533-6.533z"></path>
    </symbol>
    <symbol id="icon-burger-menu" viewBox="0 0 32 32">
      <path stroke-linejoin="round" stroke-linecap="round" stroke-miterlimit="4" stroke-width="3.3333" d="M4 8h24M4 16h24M4 24h24"></path>
    </symbol>
  </defs>
</svg>